<svg width="351" height="818" viewBox="0 0 351 818" fill="none" xmlns="http://www.w3.org/2000/svg">
<mask id="path-1-inside-1_418_5404" fill="white">
<path d="M1.28746e-05 -1.53427e-05C93.6 -1.12513e-05 181.584 42.5851 248.04 119.799C314.496 197.013 351 299.497 351 409.001C351 518.504 314.496 620.987 248.04 698.201C181.584 775.415 93.6 818 -2.28813e-05 818"/>
</mask>
<path d="M1.2656e-05 4.99998C91.9998 4.99999 178.646 46.8363 244.25 123.061L251.83 116.537C184.522 38.334 95.2002 -5.00001 1.30932e-05 -5.00002L1.2656e-05 4.99998ZM244.25 123.061C309.865 199.297 346 300.598 346 409.001L356 409.001C356 298.396 319.127 194.729 251.83 116.537L244.25 123.061ZM346 409.001C346 517.403 309.865 618.703 244.25 694.939L251.83 701.463C319.127 623.271 356 519.605 356 409.001L346 409.001ZM244.25 694.939C178.646 771.164 91.9998 813 -2.26628e-05 813L-2.30999e-05 823C95.2002 823 184.522 779.666 251.83 701.463L244.25 694.939Z" fill="#0A0A0B" mask="url(#path-1-inside-1_418_5404)"/>
</svg>
