<svg width="350" height="60" viewBox="0 0 350 60" fill="none" xmlns="http://www.w3.org/2000/svg">
<g filter="url(#filter0_ddd)">
<path d="M26.9255 35.656H21.2375L20.0375 40H16.2935L21.0695 24.4C21.1335 24.112 21.2855 23.88 21.5255 23.704C21.7655 23.528 22.0375 23.44 22.3415 23.44H25.7975C26.4855 23.44 26.9095 23.76 27.0695 24.4L31.8455 40H28.1255L26.9255 35.656ZM26.1335 32.824L24.7415 27.76C24.5495 26.96 24.4375 26.44 24.4055 26.2H23.7575C23.7255 26.36 23.6695 26.616 23.5895 26.968C23.5095 27.32 23.4455 27.584 23.3975 27.76L22.0055 32.824H26.1335ZM44.5509 28.168V40H40.9989V30.64H39.4629C39.0629 30.64 38.7669 30.728 38.5749 30.904C38.3989 31.08 38.2789 31.384 38.2149 31.816C37.8789 34.472 37.5909 36.264 37.3509 37.192C36.8709 39.464 35.2629 40.44 32.5269 40.12L32.1669 37.48C32.8229 37.368 33.2869 37.24 33.5589 37.096C33.8469 36.936 34.0549 36.64 34.1829 36.208C34.4869 35.312 34.7429 33.632 34.9509 31.168C35.1429 29.168 36.2389 28.168 38.2389 28.168H44.5509ZM54.4826 33.784V33.88C54.9626 33.944 55.3546 34.016 55.6586 34.096C55.9626 34.16 56.2586 34.304 56.5466 34.528C56.8346 34.752 57.0506 34.96 57.1946 35.152C57.3546 35.344 57.5546 35.72 57.7946 36.28C58.0346 36.824 58.2266 37.328 58.3706 37.792C58.5306 38.256 58.7706 38.992 59.0906 40H55.3946C54.6906 37.76 54.1706 36.384 53.8346 35.872C53.4986 35.36 52.9066 35.104 52.0586 35.104H50.9786C51.0586 35.504 51.0986 35.84 51.0986 36.112V40H47.5706V28.168H51.0986V31.192C51.0986 31.672 51.0506 32.152 50.9546 32.632H51.8426C52.7546 32.632 53.3866 32.376 53.7386 31.864C54.0906 31.336 54.5466 30.104 55.1066 28.168H58.7066C57.9706 30.392 57.4746 31.736 57.2186 32.2C56.8346 32.904 56.2666 33.36 55.5146 33.568C55.2426 33.648 54.8986 33.72 54.4826 33.784ZM61.8637 29.248C62.7917 28.304 64.3677 27.832 66.5917 27.832C68.8157 27.832 70.3837 28.304 71.2957 29.248C72.2077 30.192 72.6637 31.808 72.6637 34.096C72.6637 36.368 72.2077 37.976 71.2957 38.92C70.3837 39.848 68.8157 40.312 66.5917 40.312C64.3677 40.312 62.7917 39.848 61.8637 38.92C60.9517 37.976 60.4957 36.368 60.4957 34.096C60.4957 31.808 60.9517 30.192 61.8637 29.248ZM66.5917 30.496C65.6477 30.496 65.0157 30.736 64.6957 31.216C64.3757 31.696 64.2157 32.656 64.2157 34.096C64.2157 35.504 64.3757 36.448 64.6957 36.928C65.0157 37.408 65.6477 37.648 66.5917 37.648C67.5197 37.648 68.1437 37.408 68.4637 36.928C68.7997 36.448 68.9677 35.504 68.9677 34.096C68.9677 32.672 68.7997 31.72 68.4637 31.24C68.1437 30.744 67.5197 30.496 66.5917 30.496ZM84.8285 37.192L85.1645 39.496C83.9325 40.024 82.3965 40.288 80.5565 40.288C78.3805 40.288 76.8445 39.824 75.9485 38.896C75.0685 37.952 74.6285 36.344 74.6285 34.072C74.6285 31.784 75.0765 30.176 75.9725 29.248C76.8685 28.304 78.4125 27.832 80.6045 27.832C82.3965 27.832 83.8525 28.08 84.9725 28.576L84.5885 30.784C82.8605 30.752 81.7325 30.736 81.2045 30.736C80.1165 30.736 79.3645 30.968 78.9485 31.432C78.5485 31.896 78.3485 32.776 78.3485 34.072C78.3485 35.368 78.5485 36.248 78.9485 36.712C79.3645 37.176 80.1165 37.408 81.2045 37.408C82.6125 37.408 83.8205 37.336 84.8285 37.192ZM97.7115 30.904H93.7755V40H90.2715V30.904H86.3355V28.168H97.7115V30.904ZM100.465 29.248C101.393 28.304 102.969 27.832 105.193 27.832C107.417 27.832 108.985 28.304 109.897 29.248C110.809 30.192 111.265 31.808 111.265 34.096C111.265 36.368 110.809 37.976 109.897 38.92C108.985 39.848 107.417 40.312 105.193 40.312C102.969 40.312 101.393 39.848 100.465 38.92C99.5533 37.976 99.0973 36.368 99.0973 34.096C99.0973 31.808 99.5533 30.192 100.465 29.248ZM105.193 30.496C104.249 30.496 103.617 30.736 103.297 31.216C102.977 31.696 102.817 32.656 102.817 34.096C102.817 35.504 102.977 36.448 103.297 36.928C103.617 37.408 104.249 37.648 105.193 37.648C106.121 37.648 106.745 37.408 107.065 36.928C107.401 36.448 107.569 35.504 107.569 34.096C107.569 32.672 107.401 31.72 107.065 31.24C106.745 30.744 106.121 30.496 105.193 30.496ZM125.014 28.144V40H121.582V30.688H117.214V40H113.758V28.144H125.014ZM128.872 29.248C129.8 28.304 131.376 27.832 133.6 27.832C135.824 27.832 137.392 28.304 138.304 29.248C139.216 30.192 139.672 31.808 139.672 34.096C139.672 36.368 139.216 37.976 138.304 38.92C137.392 39.848 135.824 40.312 133.6 40.312C131.376 40.312 129.8 39.848 128.872 38.92C127.96 37.976 127.504 36.368 127.504 34.096C127.504 31.808 127.96 30.192 128.872 29.248ZM133.6 30.496C132.656 30.496 132.024 30.736 131.704 31.216C131.384 31.696 131.224 32.656 131.224 34.096C131.224 35.504 131.384 36.448 131.704 36.928C132.024 37.408 132.656 37.648 133.6 37.648C134.528 37.648 135.152 37.408 135.472 36.928C135.808 36.448 135.976 35.504 135.976 34.096C135.976 32.672 135.808 31.72 135.472 31.24C135.152 30.744 134.528 30.496 133.6 30.496ZM153.3 28.168H156.516C157.316 28.168 157.732 28.576 157.764 29.392L158.148 40H154.908L154.572 30.76H154.236L152.316 37.384C152.14 38.12 151.7 38.488 150.996 38.488H149.076C148.34 38.488 147.884 38.12 147.708 37.384L145.812 30.76H145.476L145.188 40H141.972L142.332 29.392C142.332 28.576 142.748 28.168 143.58 28.168H146.748C147.484 28.168 147.924 28.536 148.068 29.272L149.556 34.504C149.636 34.808 149.748 35.392 149.892 36.256H150.156C150.172 36.176 150.212 35.92 150.276 35.488C150.356 35.056 150.428 34.728 150.492 34.504L151.956 29.272C152.1 28.536 152.548 28.168 153.3 28.168ZM177.42 28.144V40H173.988V30.688H169.62V40H166.164V28.144H177.42ZM181.278 29.248C182.206 28.304 183.782 27.832 186.006 27.832C188.23 27.832 189.798 28.304 190.71 29.248C191.622 30.192 192.078 31.808 192.078 34.096C192.078 36.368 191.622 37.976 190.71 38.92C189.798 39.848 188.23 40.312 186.006 40.312C183.782 40.312 182.206 39.848 181.278 38.92C180.366 37.976 179.91 36.368 179.91 34.096C179.91 31.808 180.366 30.192 181.278 29.248ZM186.006 30.496C185.062 30.496 184.43 30.736 184.11 31.216C183.79 31.696 183.63 32.656 183.63 34.096C183.63 35.504 183.79 36.448 184.11 36.928C184.43 37.408 185.062 37.648 186.006 37.648C186.934 37.648 187.558 37.408 187.878 36.928C188.214 36.448 188.382 35.504 188.382 34.096C188.382 32.672 188.214 31.72 187.878 31.24C187.558 30.744 186.934 30.496 186.006 30.496ZM199.702 40V30.88C199.702 28.976 200.718 28.024 202.75 28.024C205.918 28.024 208.15 28.128 209.446 28.336L209.302 30.808H204.31C203.926 30.808 203.646 30.896 203.47 31.072C203.31 31.232 203.23 31.504 203.23 31.888V40H199.702ZM211.546 30.808L211.234 28.408C213.362 28.024 215.41 27.832 217.378 27.832C218.978 27.832 220.154 28.16 220.906 28.816C221.674 29.456 222.058 30.576 222.058 32.176V40H219.25L218.89 38.2C217.706 39.592 216.242 40.288 214.498 40.288C213.362 40.288 212.434 39.992 211.714 39.4C211.01 38.792 210.658 37.952 210.658 36.88V35.68C210.658 34.736 210.978 34 211.618 33.472C212.258 32.944 213.146 32.68 214.282 32.68H218.506V32.152C218.49 31.56 218.346 31.16 218.074 30.952C217.818 30.728 217.314 30.616 216.562 30.616C215.266 30.616 213.594 30.68 211.546 30.808ZM214.162 35.944V36.4C214.162 37.216 214.618 37.624 215.53 37.624C216.474 37.624 217.466 37.24 218.506 36.472V34.816H215.314C214.546 34.832 214.162 35.208 214.162 35.944ZM236.129 28.168V40H232.577V30.64H231.041C230.641 30.64 230.345 30.728 230.153 30.904C229.977 31.08 229.857 31.384 229.793 31.816C229.457 34.472 229.169 36.264 228.929 37.192C228.449 39.464 226.841 40.44 224.105 40.12L223.745 37.48C224.401 37.368 224.865 37.24 225.137 37.096C225.425 36.936 225.633 36.64 225.761 36.208C226.065 35.312 226.321 33.632 226.529 31.168C226.721 29.168 227.817 28.168 229.817 28.168H236.129ZM239.437 30.808L239.125 28.408C241.253 28.024 243.301 27.832 245.269 27.832C246.869 27.832 248.045 28.16 248.797 28.816C249.565 29.456 249.949 30.576 249.949 32.176V40H247.141L246.781 38.2C245.597 39.592 244.133 40.288 242.389 40.288C241.253 40.288 240.325 39.992 239.605 39.4C238.901 38.792 238.549 37.952 238.549 36.88V35.68C238.549 34.736 238.869 34 239.509 33.472C240.149 32.944 241.037 32.68 242.173 32.68H246.397V32.152C246.381 31.56 246.237 31.16 245.965 30.952C245.709 30.728 245.205 30.616 244.453 30.616C243.157 30.616 241.485 30.68 239.437 30.808ZM242.053 35.944V36.4C242.053 37.216 242.509 37.624 243.421 37.624C244.365 37.624 245.357 37.24 246.397 36.472V34.816H243.205C242.437 34.832 242.053 35.208 242.053 35.944ZM259.772 33.784V33.88C260.252 33.944 260.644 34.016 260.948 34.096C261.252 34.16 261.548 34.304 261.836 34.528C262.124 34.752 262.34 34.96 262.484 35.152C262.644 35.344 262.844 35.72 263.084 36.28C263.324 36.824 263.516 37.328 263.66 37.792C263.82 38.256 264.06 38.992 264.38 40H260.684C259.98 37.76 259.46 36.384 259.124 35.872C258.788 35.36 258.196 35.104 257.348 35.104H256.268C256.348 35.504 256.388 35.84 256.388 36.112V40H252.86V28.168H256.388V31.192C256.388 31.672 256.34 32.152 256.244 32.632H257.132C258.044 32.632 258.676 32.376 259.028 31.864C259.38 31.336 259.836 30.104 260.396 28.168H263.996C263.26 30.392 262.764 31.736 262.508 32.2C262.124 32.904 261.556 33.36 260.804 33.568C260.532 33.648 260.188 33.72 259.772 33.784ZM276.751 30.904H272.815V40H269.311V30.904H265.375V28.168H276.751V30.904ZM290.231 40.024H287.063V33.832C287.063 33.368 287.103 32.736 287.183 31.936H287.087C286.911 32.512 286.615 33.096 286.199 33.688L281.735 40H278.711V28.168H281.855V34.48C281.855 34.928 281.815 35.512 281.735 36.232H281.807C282.015 35.704 282.311 35.168 282.695 34.624L287.207 28.168H290.231V40.024ZM300.178 33.784V33.88C300.658 33.944 301.05 34.016 301.354 34.096C301.658 34.16 301.954 34.304 302.242 34.528C302.53 34.752 302.746 34.96 302.89 35.152C303.05 35.344 303.25 35.72 303.49 36.28C303.73 36.824 303.922 37.328 304.066 37.792C304.226 38.256 304.466 38.992 304.786 40H301.09C300.386 37.76 299.866 36.384 299.53 35.872C299.194 35.36 298.602 35.104 297.754 35.104H296.674C296.754 35.504 296.794 35.84 296.794 36.112V40H293.266V28.168H296.794V31.192C296.794 31.672 296.746 32.152 296.65 32.632H297.538C298.45 32.632 299.082 32.376 299.434 31.864C299.786 31.336 300.242 30.104 300.802 28.168H304.402C303.666 30.392 303.17 31.736 302.914 32.2C302.53 32.904 301.962 33.36 301.21 33.568C300.938 33.648 300.594 33.72 300.178 33.784ZM314.231 35.272H309.959C310.071 36.136 310.335 36.72 310.751 37.024C311.167 37.312 311.839 37.456 312.767 37.456C314.031 37.456 315.503 37.368 317.183 37.192L317.519 39.4C316.287 39.992 314.567 40.288 312.359 40.288C310.135 40.288 308.551 39.808 307.607 38.848C306.663 37.888 306.191 36.304 306.191 34.096C306.191 31.792 306.655 30.176 307.583 29.248C308.511 28.304 310.055 27.832 312.215 27.832C314.183 27.832 315.607 28.176 316.487 28.864C317.367 29.536 317.815 30.568 317.831 31.96C317.831 33.064 317.543 33.896 316.967 34.456C316.407 35 315.495 35.272 314.231 35.272ZM309.887 33.136H313.247C313.695 33.136 313.991 33.032 314.135 32.824C314.279 32.616 314.351 32.312 314.351 31.912C314.351 31.352 314.207 30.968 313.919 30.76C313.631 30.536 313.103 30.424 312.335 30.424C311.423 30.424 310.799 30.608 310.463 30.976C310.127 31.328 309.935 32.048 309.887 33.136Z" fill="url(#paint0_linear)"/>
</g>
<defs>
<filter id="filter0_ddd" x="-15.7061" y="-4.56006" width="365.538" height="80.872" filterUnits="userSpaceOnUse" color-interpolation-filters="sRGB">
<feFlood flood-opacity="0" result="BackgroundImageFix"/>
<feColorMatrix in="SourceAlpha" type="matrix" values="0 0 0 0 0 0 0 0 0 0 0 0 0 0 0 0 0 0 127 0"/>
<feOffset dy="4"/>
<feGaussianBlur stdDeviation="16"/>
<feColorMatrix type="matrix" values="0 0 0 0 0.2 0 0 0 0 0.2 0 0 0 0 1 0 0 0 0.5 0"/>
<feBlend mode="normal" in2="BackgroundImageFix" result="effect1_dropShadow"/>
<feColorMatrix in="SourceAlpha" type="matrix" values="0 0 0 0 0 0 0 0 0 0 0 0 0 0 0 0 0 0 127 0"/>
<feMorphology radius="8" operator="dilate" in="SourceAlpha" result="effect2_dropShadow"/>
<feOffset/>
<feGaussianBlur stdDeviation="4"/>
<feColorMatrix type="matrix" values="0 0 0 0 0.2 0 0 0 0 0.2 0 0 0 0 1 0 0 0 0.25 0"/>
<feBlend mode="normal" in2="effect1_dropShadow" result="effect2_dropShadow"/>
<feColorMatrix in="SourceAlpha" type="matrix" values="0 0 0 0 0 0 0 0 0 0 0 0 0 0 0 0 0 0 127 0"/>
<feMorphology radius="8" operator="dilate" in="SourceAlpha" result="effect3_dropShadow"/>
<feOffset/>
<feGaussianBlur stdDeviation="8"/>
<feColorMatrix type="matrix" values="0 0 0 0 0.2 0 0 0 0 0.2 0 0 0 0 1 0 0 0 0.25 0"/>
<feBlend mode="normal" in2="effect2_dropShadow" result="effect3_dropShadow"/>
<feBlend mode="normal" in="SourceGraphic" in2="effect3_dropShadow" result="shape"/>
</filter>
<linearGradient id="paint0_linear" x1="16" y1="44" x2="30.7431" y2="-36.6769" gradientUnits="userSpaceOnUse">
<stop stop-color="#801AB3"/>
<stop offset="1" stop-color="#4C4CFF"/>
</linearGradient>
</defs>
</svg>
