<svg width="24" height="24" viewBox="0 0 24 24" fill="none" xmlns="http://www.w3.org/2000/svg">
<circle cx="12" cy="12" r="11" fill="#EBEBEA" stroke="#141414" stroke-width="2"/>
<path d="M4.7998 10.101C4.7998 14.4227 8.62306 20.4 11.9998 20.4C15.1787 20.4 19.1998 14.4227 19.1998 10.101C19.1998 5.77925 15.9763 3.59998 11.9998 3.59998C8.02332 3.59998 4.7998 5.77925 4.7998 10.101ZM13.8705 13.2967C14.7496 12.4876 15.9762 12.1933 17.1082 12.4135C17.3474 13.4554 17.0277 14.5842 16.1486 15.3934C15.2695 16.2025 14.0429 16.4967 12.9109 16.2765C12.6717 15.2346 12.9914 14.1058 13.8705 13.2967ZM6.89139 12.4135C8.02341 12.1933 9.24995 12.4875 10.1291 13.2967C11.0082 14.1058 11.3279 15.2346 11.0887 16.2765C9.95664 16.4967 8.73011 16.2024 7.85098 15.3933C6.97186 14.5842 6.65215 13.4553 6.89139 12.4135Z" fill="#141414"/>
</svg>
