<svg width="80" height="84" viewBox="0 0 80 84" fill="none" xmlns="http://www.w3.org/2000/svg">
<path d="M0.999841 57C5.49863 71.996 22.0058 83.9935 40 84C57.9941 83.9935 74.5013 71.996 79.0001 57C82.2038 46.321 67.7608 44.1262 60.5298 42.563C58.9122 42.2125 57.2235 42.5235 55.7718 43.3185C52.5465 45.0848 46.2732 48 40 48C33.7268 48 27.4535 45.0848 24.2281 43.3185C22.7765 42.5235 21.0877 42.2125 19.4702 42.563C12.2392 44.1262 -2.20391 46.321 0.999841 57Z" fill="#0A0A0B"/>
<path d="M22 18.051C22 27.9433 30.1356 36 40 36C49.8643 36 57.9999 27.9433 57.9999 18.051C57.9999 8.05669 49.8643 4.57764e-05 40 0C30.1356 4.29153e-05 22 8.05668 22 18.051Z" fill="#0A0A0B"/>
</svg>
