<svg width="22" height="19" viewBox="0 0 22 19" fill="none" xmlns="http://www.w3.org/2000/svg">
<path d="M19.1328 2.31877L19.1332 2.3191C19.5513 2.73699 19.8829 3.23316 20.1092 3.77926C20.3355 4.32537 20.4519 4.9107 20.4519 5.50183C20.4519 6.09295 20.3355 6.67828 20.1092 7.22439C19.8829 7.77049 19.5513 8.26666 19.1332 8.68455L19.133 8.68472L18.073 9.74472L11.0001 16.8176L3.92723 9.74472L2.86723 8.68472C2.02307 7.84056 1.54883 6.69564 1.54883 5.50183C1.54883 4.30801 2.02307 3.16309 2.86723 2.31893C3.71138 1.47478 4.8563 1.00053 6.05012 1.00053C7.24394 1.00053 8.38886 1.47478 9.23301 2.31893L10.293 3.37893L11.0001 4.08604L11.7072 3.37893L12.7672 2.31893L12.7674 2.31877C13.1853 1.90068 13.6815 1.56902 14.2276 1.34274C14.7737 1.11647 15.359 1 15.9501 1C16.5412 1 17.1266 1.11647 17.6727 1.34274C18.2188 1.56902 18.715 1.90068 19.1328 2.31877Z" stroke="#62626A" stroke-width="2" stroke-linecap="round"/>
</svg>
