<svg width="22" height="19" viewBox="0 0 22 19" fill="none" xmlns="http://www.w3.org/2000/svg">
<path d="M19.84 1.61183C19.3292 1.10083 18.7228 0.695472 18.0554 0.41891C17.3879 0.142347 16.6725 0 15.95 0C15.2275 0 14.5121 0.142347 13.8446 0.41891C13.1772 0.695472 12.5708 1.10083 12.06 1.61183L11 2.67183L9.94 1.61183C8.9083 0.580134 7.50903 0.000534762 6.05 0.000534773C4.59096 0.000534784 3.19169 0.580134 2.16 1.61183C1.1283 2.64352 0.548706 4.04279 0.548706 5.50183C0.548706 6.96086 1.1283 8.36013 2.16 9.39183L3.22 10.4518L11 18.2318L18.78 10.4518L19.84 9.39183C20.351 8.88107 20.7563 8.27464 21.0329 7.60718C21.3095 6.93972 21.4518 6.22431 21.4518 5.50183C21.4518 4.77934 21.3095 4.06393 21.0329 3.39647C20.7563 2.72901 20.351 2.12258 19.84 1.61183Z" fill="#FAFAFA"/>
</svg>
